<svg xmlns="http://www.w3.org/2000/svg" viewBox="0 0 200 200">
<line x1="160" y1="100" x2="182" y2="100" stroke="#1d1a2e" stroke-width="10" stroke-linecap="round"/><line x1="160" y1="100" x2="182" y2="100" stroke="#ff9f8f" stroke-width="4" stroke-linecap="round"/>
<ellipse cx="182" cy="100" rx="13" ry="9" transform="rotate(90 182 100)" fill="#ff6b5e" stroke="#1d1a2e" stroke-width="4"/><line x1="154.05" y1="126.03" x2="173.87" y2="135.57" stroke="#1d1a2e" stroke-width="10" stroke-linecap="round"/><line x1="154.05" y1="126.03" x2="173.87" y2="135.57" stroke="#ff9f8f" stroke-width="4" stroke-linecap="round"/>
<ellipse cx="173.87" cy="135.57" rx="13" ry="9" transform="rotate(115.71 173.87 135.57)" fill="#ff6b5e" stroke="#1d1a2e" stroke-width="4"/><line x1="137.40" y1="146.90" x2="151.12" y2="164.11" stroke="#1d1a2e" stroke-width="10" stroke-linecap="round"/><line x1="137.40" y1="146.90" x2="151.12" y2="164.11" stroke="#ff9f8f" stroke-width="4" stroke-linecap="round"/>
<ellipse cx="151.12" cy="164.11" rx="13" ry="9" transform="rotate(141.42 151.12 164.11)" fill="#ff6b5e" stroke="#1d1a2e" stroke-width="4"/><line x1="113.35" y1="158.49" x2="118.24" y2="179.94" stroke="#1d1a2e" stroke-width="10" stroke-linecap="round"/><line x1="113.35" y1="158.49" x2="118.24" y2="179.94" stroke="#ff9f8f" stroke-width="4" stroke-linecap="round"/>
<ellipse cx="118.24" cy="179.94" rx="13" ry="9" transform="rotate(167.14 118.24 179.94)" fill="#ff6b5e" stroke="#1d1a2e" stroke-width="4"/><line x1="86.64" y1="158.49" x2="81.75" y2="179.94" stroke="#1d1a2e" stroke-width="10" stroke-linecap="round"/><line x1="86.64" y1="158.49" x2="81.75" y2="179.94" stroke="#ff9f8f" stroke-width="4" stroke-linecap="round"/>
<ellipse cx="81.75" cy="179.94" rx="13" ry="9" transform="rotate(192.85 81.75 179.94)" fill="#ff6b5e" stroke="#1d1a2e" stroke-width="4"/><line x1="62.59" y1="146.90" x2="48.87" y2="164.11" stroke="#1d1a2e" stroke-width="10" stroke-linecap="round"/><line x1="62.59" y1="146.90" x2="48.87" y2="164.11" stroke="#ff9f8f" stroke-width="4" stroke-linecap="round"/>
<ellipse cx="48.87" cy="164.11" rx="13" ry="9" transform="rotate(218.57 48.87 164.11)" fill="#ff6b5e" stroke="#1d1a2e" stroke-width="4"/><line x1="45.94" y1="126.03" x2="26.12" y2="135.57" stroke="#1d1a2e" stroke-width="10" stroke-linecap="round"/><line x1="45.94" y1="126.03" x2="26.12" y2="135.57" stroke="#ff9f8f" stroke-width="4" stroke-linecap="round"/>
<ellipse cx="26.12" cy="135.57" rx="13" ry="9" transform="rotate(244.28 26.12 135.57)" fill="#ff6b5e" stroke="#1d1a2e" stroke-width="4"/><line x1="40" y1="100.00" x2="18" y2="100.00" stroke="#1d1a2e" stroke-width="10" stroke-linecap="round"/><line x1="40" y1="100.00" x2="18" y2="100.00" stroke="#ff9f8f" stroke-width="4" stroke-linecap="round"/>
<ellipse cx="18" cy="100.00" rx="13" ry="9" transform="rotate(270 18 100.00)" fill="#ff6b5e" stroke="#1d1a2e" stroke-width="4"/><line x1="45.94" y1="73.96" x2="26.12" y2="64.42" stroke="#1d1a2e" stroke-width="10" stroke-linecap="round"/><line x1="45.94" y1="73.96" x2="26.12" y2="64.42" stroke="#ff9f8f" stroke-width="4" stroke-linecap="round"/>
<ellipse cx="26.12" cy="64.42" rx="13" ry="9" transform="rotate(295.71 26.12 64.42)" fill="#ff6b5e" stroke="#1d1a2e" stroke-width="4"/><line x1="62.59" y1="53.09" x2="48.87" y2="35.88" stroke="#1d1a2e" stroke-width="10" stroke-linecap="round"/><line x1="62.59" y1="53.09" x2="48.87" y2="35.88" stroke="#ff9f8f" stroke-width="4" stroke-linecap="round"/>
<ellipse cx="48.87" cy="35.88" rx="13" ry="9" transform="rotate(321.42 48.87 35.88)" fill="#ff6b5e" stroke="#1d1a2e" stroke-width="4"/><line x1="86.64" y1="41.50" x2="81.75" y2="20.05" stroke="#1d1a2e" stroke-width="10" stroke-linecap="round"/><line x1="86.64" y1="41.50" x2="81.75" y2="20.05" stroke="#ff9f8f" stroke-width="4" stroke-linecap="round"/>
<ellipse cx="81.75" cy="20.05" rx="13" ry="9" transform="rotate(347.14 81.75 20.05)" fill="#ff6b5e" stroke="#1d1a2e" stroke-width="4"/><line x1="113.35" y1="41.50" x2="118.24" y2="20.05" stroke="#1d1a2e" stroke-width="10" stroke-linecap="round"/><line x1="113.35" y1="41.50" x2="118.24" y2="20.05" stroke="#ff9f8f" stroke-width="4" stroke-linecap="round"/>
<ellipse cx="118.24" cy="20.05" rx="13" ry="9" transform="rotate(372.85 118.24 20.05)" fill="#ff6b5e" stroke="#1d1a2e" stroke-width="4"/><line x1="137.40" y1="53.09" x2="151.12" y2="35.88" stroke="#1d1a2e" stroke-width="10" stroke-linecap="round"/><line x1="137.40" y1="53.09" x2="151.12" y2="35.88" stroke="#ff9f8f" stroke-width="4" stroke-linecap="round"/>
<ellipse cx="151.12" cy="35.88" rx="13" ry="9" transform="rotate(398.57 151.12 35.88)" fill="#ff6b5e" stroke="#1d1a2e" stroke-width="4"/><line x1="154.05" y1="73.96" x2="173.87" y2="64.42" stroke="#1d1a2e" stroke-width="10" stroke-linecap="round"/><line x1="154.05" y1="73.96" x2="173.87" y2="64.42" stroke="#ff9f8f" stroke-width="4" stroke-linecap="round"/>
<ellipse cx="173.87" cy="64.42" rx="13" ry="9" transform="rotate(424.28 173.87 64.42)" fill="#ff6b5e" stroke="#1d1a2e" stroke-width="4"/>
<circle cx="100" cy="100" r="64" fill="#ff7a6b" stroke="#1d1a2e" stroke-width="6"/>
<circle cx="136.84" cy="115.57" r="6" fill="#e0493c" opacity=".55"/><circle cx="110.79" cy="138.51" r="6" fill="#e0493c" opacity=".55"/><circle cx="76.61" cy="132.45" r="6" fill="#e0493c" opacity=".55"/><circle cx="60.04" cy="101.95" r="6" fill="#e0493c" opacity=".55"/><circle cx="73.56" cy="69.98" r="6" fill="#e0493c" opacity=".55"/><circle cx="106.98" cy="60.61" r="6" fill="#e0493c" opacity=".55"/><circle cx="135.14" cy="80.90" r="6" fill="#e0493c" opacity=".55"/>
<ellipse cx="75.68" cy="71.2" rx="17.92" ry="10.24" transform="rotate(-35 75.68 71.2)" fill="#fff" opacity=".55"/>
<path d="M68.6 79.2 L88.6 87.2" stroke="#1d1a2e" stroke-width="6.4" stroke-linecap="round"/>
<path d="M131.4 79.2 L111.4 87.2" stroke="#1d1a2e" stroke-width="6.4" stroke-linecap="round"/><ellipse cx="79" cy="96" rx="8" ry="10" fill="#1d1a2e"/><circle cx="81.8" cy="92.4" r="3.04" fill="#fff"/><ellipse cx="121" cy="96" rx="8" ry="10" fill="#1d1a2e"/><circle cx="123.8" cy="92.4" r="3.04" fill="#fff"/><path d="M82 124 Q100 140.2 118 124" fill="#1d1a2e" stroke="#1d1a2e" stroke-width="4" stroke-linejoin="round"/><path d="M90.1 126 l5.04 5.39 l5.04 -5.39 M102 126 l5.04 5.39 l5.04 -5.39" fill="#fff"/></svg>
